<svg height="32" node-id="1" sillyvg="true" template-height="32" template-width="32" version="1.1" viewBox="0 0 32 32" width="32" xmlns="http://www.w3.org/2000/svg" xmlns:xlink="http://www.w3.org/1999/xlink"><defs node-id="173"><linearGradient gradientUnits="objectBoundingBox" id="paint4_linear_6808_5249" node-id="93" spreadMethod="pad" x1="15.8598" x2="15.8598" y1="29.0255" y2="24.0867"><stop offset="0" stop-color="#d3037b"/><stop offset="1" stop-color="#b7039b"/></linearGradient><linearGradient gradientUnits="objectBoundingBox" id="paint22_linear_6808_5249" node-id="151" spreadMethod="pad" x1="15.3749" x2="10.2496" y1="13.3162" y2="17.5134"><stop offset="0" stop-color="#ffffff"/><stop offset="0.9832" stop-color="#d1d3d4"/></linearGradient><linearGradient gradientUnits="objectBoundingBox" id="paint28_linear_6808_5249" node-id="169" spreadMethod="pad" x1="14.6853" x2="16.4155" y1="9.53125" y2="13.9101"><stop offset="0.140625" stop-color="#c6c6c6"/><stop offset="1" stop-color="#c1b4b8" stop-opacity="0"/></linearGradient><radialGradient cx="0" cy="0" fx="0" fy="0" gradientUnits="objectBoundingBox" id="paint0_radial_6808_5249" node-id="79" r="1" rev="26" spreadMethod="pad"><stop offset="0" stop-color="#f89c20"/><stop offset="0.171806" stop-color="#f8d51d"/><stop offset="0.489583" stop-color="#f89c20"/><stop offset="1" stop-color="#f5891f"/></radialGradient><radialGradient cx="0" cy="0" fx="0" fy="0" gradientUnits="objectBoundingBox" id="paint1_radial_6808_5249" node-id="84" r="1" rev="25" spreadMethod="pad"><stop offset="0" stop-color="#eb9037" stop-opacity="0"/><stop offset="1" stop-color="#eb9037"/></radialGradient><radialGradient cx="0" cy="0" fx="0" fy="0" gradientUnits="objectBoundingBox" id="paint2_radial_6808_5249" node-id="87" r="1" rev="24" spreadMethod="pad"><stop offset="0.823911" stop-color="#ffb56d" stop-opacity="0"/><stop offset="1" stop-color="#ff63c4"/></radialGradient><radialGradient cx="0" cy="0" fx="0" fy="0" gradientUnits="objectBoundingBox" id="paint3_radial_6808_5249" node-id="90" r="1" rev="23" spreadMethod="pad"><stop offset="0.222988" stop-color="#f89c20"/><stop offset="0.899786" stop-color="#bd824f"/></radialGradient><radialGradient cx="0" cy="0" fx="0" fy="0" gradientUnits="objectBoundingBox" id="paint5_radial_6808_5249" node-id="96" r="1" rev="22" spreadMethod="pad"><stop offset="0" stop-color="#ffffff"/><stop offset="0.9832" stop-color="#d1d3d4"/></radialGradient><radialGradient cx="0" cy="0" fx="0" fy="0" gradientUnits="objectBoundingBox" id="paint6_radial_6808_5249" node-id="99" r="1" rev="21" spreadMethod="pad"><stop offset="0" stop-color="#dcc4e7"/><stop offset="1" stop-color="#dcc4e7" stop-opacity="0"/></radialGradient><radialGradient cx="0" cy="0" fx="0" fy="0" gradientUnits="objectBoundingBox" id="paint7_radial_6808_5249" node-id="102" r="1" rev="20" spreadMethod="pad"><stop offset="0.140625" stop-color="#c6c6c6"/><stop offset="1" stop-color="#c1b4b8" stop-opacity="0"/></radialGradient><radialGradient cx="0" cy="0" fx="0" fy="0" gradientUnits="objectBoundingBox" id="paint8_radial_6808_5249" node-id="105" r="1" rev="19" spreadMethod="pad"><stop offset="0" stop-color="#b076cb"/><stop offset="1" stop-color="#dcc4e7" stop-opacity="0"/></radialGradient><radialGradient cx="0" cy="0" fx="0" fy="0" gradientUnits="objectBoundingBox" id="paint9_radial_6808_5249" node-id="108" r="1" rev="18" spreadMethod="pad"><stop offset="0" stop-color="#b076cb"/><stop offset="1" stop-color="#dcc4e7" stop-opacity="0"/></radialGradient><radialGradient cx="0" cy="0" fx="0" fy="0" gradientUnits="objectBoundingBox" id="paint10_radial_6808_5249" node-id="111" r="1" rev="17" spreadMethod="pad"><stop offset="0.140625" stop-color="#c6c6c6"/><stop offset="1" stop-color="#c1b4b8" stop-opacity="0"/></radialGradient><radialGradient cx="0" cy="0" fx="0" fy="0" gradientUnits="objectBoundingBox" id="paint11_radial_6808_5249" node-id="114" r="1" rev="16" spreadMethod="pad"><stop offset="0" stop-color="#ffffff"/><stop offset="0.9832" stop-color="#d1d3d4"/></radialGradient><radialGradient cx="0" cy="0" fx="0" fy="0" gradientUnits="objectBoundingBox" id="paint12_radial_6808_5249" node-id="117" r="1" rev="15" spreadMethod="pad"><stop offset="0" stop-color="#dcc4e7"/><stop offset="1" stop-color="#dcc4e7" stop-opacity="0"/></radialGradient><radialGradient cx="0" cy="0" fx="0" fy="0" gradientUnits="objectBoundingBox" id="paint13_radial_6808_5249" node-id="120" r="1" rev="14" spreadMethod="pad"><stop offset="0.140625" stop-color="#c6c6c6"/><stop offset="1" stop-color="#c1b4b8" stop-opacity="0"/></radialGradient><radialGradient cx="0" cy="0" fx="0" fy="0" gradientUnits="objectBoundingBox" id="paint14_radial_6808_5249" node-id="123" r="1" rev="13" spreadMethod="pad"><stop offset="0" stop-color="#ffffff"/><stop offset="0.9832" stop-color="#d1d3d4"/></radialGradient><radialGradient cx="0" cy="0" fx="0" fy="0" gradientUnits="objectBoundingBox" id="paint15_radial_6808_5249" node-id="126" r="1" rev="12" spreadMethod="pad"><stop offset="0" stop-color="#dcc4e7"/><stop offset="1" stop-color="#dcc4e7" stop-opacity="0"/></radialGradient><radialGradient cx="0" cy="0" fx="0" fy="0" gradientUnits="objectBoundingBox" id="paint16_radial_6808_5249" node-id="129" r="1" rev="11" spreadMethod="pad"><stop offset="0.140625" stop-color="#c6c6c6"/><stop offset="1" stop-color="#c1b4b8" stop-opacity="0"/></radialGradient><radialGradient cx="0" cy="0" fx="0" fy="0" gradientUnits="objectBoundingBox" id="paint17_radial_6808_5249" node-id="132" r="1" rev="10" spreadMethod="pad"><stop offset="0.140625" stop-color="#c6c6c6"/><stop offset="1" stop-color="#c1b4b8" stop-opacity="0"/></radialGradient><radialGradient cx="0" cy="0" fx="0" fy="0" gradientUnits="objectBoundingBox" id="paint18_radial_6808_5249" node-id="135" r="1" rev="9" spreadMethod="pad"><stop offset="0" stop-color="#ffe363"/><stop offset="0.536458" stop-color="#f4c222"/><stop offset="1" stop-color="#ed8546"/></radialGradient><radialGradient cx="0" cy="0" fx="0" fy="0" gradientUnits="objectBoundingBox" id="paint19_radial_6808_5249" node-id="139" r="1" rev="8" spreadMethod="pad"><stop offset="0" stop-color="#ffe363"/><stop offset="0.536458" stop-color="#f4c222"/><stop offset="1" stop-color="#ed8546"/></radialGradient><radialGradient cx="0" cy="0" fx="0" fy="0" gradientUnits="objectBoundingBox" id="paint20_radial_6808_5249" node-id="143" r="1" rev="7" spreadMethod="pad"><stop offset="0" stop-color="#ffe363"/><stop offset="0.536458" stop-color="#f4c222"/><stop offset="1" stop-color="#ed8546"/></radialGradient><radialGradient cx="0" cy="0" fx="0" fy="0" gradientUnits="objectBoundingBox" id="paint21_radial_6808_5249" node-id="147" r="1" rev="6" spreadMethod="pad"><stop offset="0" stop-color="#ffe363"/><stop offset="0.536458" stop-color="#f4c222"/><stop offset="1" stop-color="#ed8546"/></radialGradient><radialGradient cx="0" cy="0" fx="0" fy="0" gradientUnits="objectBoundingBox" id="paint23_radial_6808_5249" node-id="154" r="1" rev="5" spreadMethod="pad"><stop offset="0" stop-color="#dcc4e7"/><stop offset="1" stop-color="#dcc4e7" stop-opacity="0"/></radialGradient><radialGradient cx="0" cy="0" fx="0" fy="0" gradientUnits="objectBoundingBox" id="paint24_radial_6808_5249" node-id="157" r="1" rev="4" spreadMethod="pad"><stop offset="0.0416667" stop-color="#a6a2a2"/><stop offset="0.885417" stop-color="#c1b4b8" stop-opacity="0"/></radialGradient><radialGradient cx="0" cy="0" fx="0" fy="0" gradientUnits="objectBoundingBox" id="paint25_radial_6808_5249" node-id="160" r="1" rev="3" spreadMethod="pad"><stop offset="0" stop-color="#ffffff"/><stop offset="0.9832" stop-color="#d1d3d4"/></radialGradient><radialGradient cx="0" cy="0" fx="0" fy="0" gradientUnits="objectBoundingBox" id="paint26_radial_6808_5249" node-id="163" r="1" rev="2" spreadMethod="pad"><stop offset="0.15625" stop-color="#dcc4e7"/><stop offset="0.692708" stop-color="#dcc4e7" stop-opacity="0"/></radialGradient><radialGradient cx="0" cy="0" fx="0" fy="0" gradientUnits="objectBoundingBox" id="paint27_radial_6808_5249" node-id="166" r="1" rev="1" spreadMethod="pad"><stop offset="0" stop-color="#dddddd"/><stop offset="1" stop-color="#c1b4b8" stop-opacity="0"/></radialGradient><filter height="4.750119" id="filter0_f_6808_5249" node-id="47" width="6.06262" x="23.621" y="12.7219"><feFlood color-interpolation-filters="sRGB" flood-color="#000000" flood-opacity="0" result="BackgroundImageFix"></feFlood><feBlend color-interpolation-filters="sRGB" in="SourceGraphic" in2="BackgroundImageFix" mode="normal" result="shape"></feBlend><feGaussianBlur color-interpolation-filters="sRGB" in="shape" result="effect1_foregroundBlur_6808_5249" stdDeviation="0.5 0.5"></feGaussianBlur></filter><filter height="10.7544" id="filter1_f_6808_5249" node-id="51" width="9.288479" x="11.4412" y="0.358203"><feFlood color-interpolation-filters="sRGB" flood-color="#000000" flood-opacity="0" result="BackgroundImageFix"></feFlood><feBlend color-interpolation-filters="sRGB" in="SourceGraphic" in2="BackgroundImageFix" mode="normal" result="shape"></feBlend><feGaussianBlur color-interpolation-filters="sRGB" in="shape" result="effect1_foregroundBlur_6808_5249" stdDeviation="0.4 0.4"></feGaussianBlur></filter><filter height="9.22119" id="filter2_f_6808_5249" node-id="55" width="8.4021" x="4.31519" y="1.35938"><feFlood color-interpolation-filters="sRGB" flood-color="#000000" flood-opacity="0" result="BackgroundImageFix"></feFlood><feBlend color-interpolation-filters="sRGB" in="SourceGraphic" in2="BackgroundImageFix" mode="normal" result="shape"></feBlend><feGaussianBlur color-interpolation-filters="sRGB" in="shape" result="effect1_foregroundBlur_6808_5249" stdDeviation="0.5 0.5"></feGaussianBlur></filter><filter height="9.43994" id="filter3_f_6808_5249" node-id="59" width="8.596071" x="18.9297" y="1.25"><feFlood color-interpolation-filters="sRGB" flood-color="#000000" flood-opacity="0" result="BackgroundImageFix"></feFlood><feBlend color-interpolation-filters="sRGB" in="SourceGraphic" in2="BackgroundImageFix" mode="normal" result="shape"></feBlend><feGaussianBlur color-interpolation-filters="sRGB" in="shape" result="effect1_foregroundBlur_6808_5249" stdDeviation="0.5 0.5"></feGaussianBlur></filter><filter height="10.029999" id="filter4_f_6808_5249" node-id="63" width="8.959961" x="15" y="4.03247"><feFlood color-interpolation-filters="sRGB" flood-color="#000000" flood-opacity="0" result="BackgroundImageFix"></feFlood><feBlend color-interpolation-filters="sRGB" in="SourceGraphic" in2="BackgroundImageFix" mode="normal" result="shape"></feBlend><feGaussianBlur color-interpolation-filters="sRGB" in="shape" result="effect1_foregroundBlur_6808_5249" stdDeviation="0.5 0.5"></feGaussianBlur></filter><filter height="5.04688" id="filter5_f_6808_5249" node-id="67" width="3.6918898" x="12.8394" y="10.5312"><feFlood color-interpolation-filters="sRGB" flood-color="#000000" flood-opacity="0" result="BackgroundImageFix"></feFlood><feBlend color-interpolation-filters="sRGB" in="SourceGraphic" in2="BackgroundImageFix" mode="normal" result="shape"></feBlend><feGaussianBlur color-interpolation-filters="sRGB" in="shape" result="effect1_foregroundBlur_6808_5249" stdDeviation="0.25 0.25"></feGaussianBlur></filter><filter height="10.52" id="filter6_f_6808_5249" node-id="71" width="10.52" x="4.96997" y="15.98"><feFlood color-interpolation-filters="sRGB" flood-color="#000000" flood-opacity="0" result="BackgroundImageFix"></feFlood><feBlend color-interpolation-filters="sRGB" in="SourceGraphic" in2="BackgroundImageFix" mode="normal" result="shape"></feBlend><feGaussianBlur color-interpolation-filters="sRGB" in="shape" result="effect1_foregroundBlur_6808_5249" stdDeviation="0.5 0.5"></feGaussianBlur></filter><filter height="10.52" id="filter7_f_6808_5249" node-id="75" width="10.520001" x="15.5325" y="15.98"><feFlood color-interpolation-filters="sRGB" flood-color="#000000" flood-opacity="0" result="BackgroundImageFix"></feFlood><feBlend color-interpolation-filters="sRGB" in="SourceGraphic" in2="BackgroundImageFix" mode="normal" result="shape"></feBlend><feGaussianBlur color-interpolation-filters="sRGB" in="shape" result="effect1_foregroundBlur_6808_5249" stdDeviation="0.5 0.5"></feGaussianBlur></filter></defs><path d="M 14.70 10.90 L 22.00 11.00 L 26.90 11.40 L 28.90 12.50 L 29.80 14.50 L 29.60 18.70 L 29.10 21.00 L 27.10 25.10 L 25.60 26.70 L 23.70 28.10 L 21.60 29.10 L 19.10 29.70 L 16.00 30.10 L 12.80 29.70 L 10.30 29.10 L 8.20 28.10 L 6.30 26.70 L 4.80 25.10 L 3.60 23.10 L 2.20 18.70 L 2.00 16.10 L 2.40 13.30 L 3.80 11.90 L 6.80 11.10 L 14.70 10.90 Z" fill="url(#paint0_radial_6808_5249)" fill-rule="nonzero" node-id="426" stroke="none" target-height="19.2" target-width="27.8" target-x="2" target-y="10.9"/><path d="M 14.70 10.90 L 22.00 11.00 L 26.90 11.40 L 28.90 12.50 L 29.80 14.50 L 29.60 18.70 L 29.10 21.00 L 27.10 25.10 L 25.60 26.70 L 23.70 28.10 L 21.60 29.10 L 19.10 29.70 L 16.00 30.10 L 12.80 29.70 L 10.30 29.10 L 8.20 28.10 L 6.30 26.70 L 4.80 25.10 L 3.60 23.10 L 2.20 18.70 L 2.00 16.10 L 2.40 13.30 L 3.80 11.90 L 6.80 11.10 L 14.70 10.90 Z" fill="url(#paint1_radial_6808_5249)" fill-rule="nonzero" node-id="428" stroke="none" target-height="19.2" target-width="27.8" target-x="2" target-y="10.9"/><path d="M 14.70 10.90 L 22.00 11.00 L 26.90 11.40 L 28.90 12.50 L 29.80 14.50 L 29.60 18.70 L 29.10 21.00 L 27.10 25.10 L 25.60 26.70 L 23.70 28.10 L 21.60 29.10 L 19.10 29.70 L 16.00 30.10 L 12.80 29.70 L 10.30 29.10 L 8.20 28.10 L 6.30 26.70 L 4.80 25.10 L 3.60 23.10 L 2.20 18.70 L 2.00 16.10 L 2.40 13.30 L 3.80 11.90 L 6.80 11.10 L 14.70 10.90 Z" fill="url(#paint2_radial_6808_5249)" fill-rule="nonzero" node-id="430" stroke="none" target-height="19.2" target-width="27.8" target-x="2" target-y="10.9"/><path d="M 25.90 13.10 L 24.90 14.00 L 23.20 14.50 L 15.90 15.10 L 8.60 14.50 L 6.90 14.00 L 5.90 13.10 L 6.90 12.20 L 8.60 11.70 L 15.90 11.10 L 23.20 11.70 L 24.90 12.20 L 25.90 13.10 Z" fill="url(#paint3_radial_6808_5249)" fill-rule="nonzero" node-id="432" stroke="none" target-height="4" target-width="20" target-x="5.9" target-y="11.1"/><path d="M 15.90 29.00 L 14.10 28.30 L 13.40 26.60 L 13.60 25.60 L 14.90 24.30 L 16.80 24.30 L 18.10 25.60 L 18.30 26.60 L 17.60 28.30 L 15.90 29.00 Z" fill="url(#paint4_linear_6808_5249)" fill-rule="nonzero" node-id="434" stroke="none" target-height="4.700001" target-width="4.8999996" target-x="13.4" target-y="24.3"/><g node-id="546"><path d="M 28.20 14.20 L 25.10 16.00" fill="none" filter="url(#filter0_f_6808_5249)" group-id="1" node-id="438" stroke="#fff500" stroke-linecap="round" stroke-opacity="0.5" stroke-width="1" target-height="1.8000002" target-width="3.1000004" target-x="25.1" target-y="14.2"/></g><path d="M 20.10 8.70 L 18.30 10.30 L 16.00 10.90 L 13.60 10.30 L 11.80 8.70 L 10.60 9.60 L 9.00 10.00 L 7.40 9.70 L 6.10 8.80 L 5.30 7.50 L 5.00 6.00 L 5.30 4.40 L 6.10 3.10 L 7.40 2.30 L 9.00 2.00 L 11.80 2.60 L 13.60 1.60 L 16.00 1.00 L 18.30 1.60 L 20.10 2.60 L 23.00 2.00 L 24.50 2.30 L 25.80 3.10 L 26.70 4.40 L 27.00 6.00 L 26.70 7.50 L 25.80 8.80 L 24.50 9.70 L 23.00 10.00 L 21.40 9.60 L 20.10 8.70 Z" fill="url(#paint5_radial_6808_5249)" fill-rule="nonzero" node-id="441" stroke="none" target-height="9.9" target-width="22" target-x="5" target-y="1"/><path d="M 20.10 8.70 L 18.30 10.30 L 16.00 10.90 L 13.60 10.30 L 11.80 8.70 L 10.60 9.60 L 9.00 10.00 L 7.40 9.70 L 6.10 8.80 L 5.30 7.50 L 5.00 6.00 L 5.30 4.40 L 6.10 3.10 L 7.40 2.30 L 9.00 2.00 L 11.80 2.60 L 13.60 1.60 L 16.00 1.00 L 18.30 1.60 L 20.10 2.60 L 23.00 2.00 L 24.50 2.30 L 25.80 3.10 L 26.70 4.40 L 27.00 6.00 L 26.70 7.50 L 25.80 8.80 L 24.50 9.70 L 23.00 10.00 L 21.40 9.60 L 20.10 8.70 Z" fill="url(#paint6_radial_6808_5249)" fill-rule="nonzero" node-id="443" stroke="none" target-height="9.9" target-width="22" target-x="5" target-y="1"/><g node-id="547"><path d="M 20.10 8.70 L 18.30 10.30 L 16.00 10.90 L 13.60 10.30 L 11.80 8.70 L 10.60 9.60 L 9.00 10.00 L 7.40 9.70 L 6.10 8.80 L 5.30 7.50 L 5.00 6.00 L 5.30 4.40 L 6.10 3.10 L 7.40 2.30 L 9.00 2.00 L 11.80 2.60 L 13.60 1.60 L 16.00 1.00 L 18.30 1.60 L 20.10 2.60 L 23.00 2.00 L 24.50 2.30 L 25.80 3.10 L 26.70 4.40 L 27.00 6.00 L 26.70 7.50 L 25.80 8.80 L 24.50 9.70 L 23.00 10.00 L 21.40 9.60 L 20.10 8.70 Z" fill="url(#paint7_radial_6808_5249)" fill-rule="nonzero" group-id="2" node-id="447" stroke="none" target-height="9.9" target-width="22" target-x="5" target-y="1"/></g><path d="M 20.10 8.70 L 18.30 10.30 L 16.00 10.90 L 13.60 10.30 L 11.80 8.70 L 10.60 9.60 L 9.00 10.00 L 7.40 9.70 L 6.10 8.80 L 5.30 7.50 L 5.00 6.00 L 5.30 4.40 L 6.10 3.10 L 7.40 2.30 L 9.00 2.00 L 11.80 2.60 L 13.60 1.60 L 16.00 1.00 L 18.30 1.60 L 20.10 2.60 L 23.00 2.00 L 24.50 2.30 L 25.80 3.10 L 26.70 4.40 L 27.00 6.00 L 26.70 7.50 L 25.80 8.80 L 24.50 9.70 L 23.00 10.00 L 21.40 9.60 L 20.10 8.70 Z" fill="url(#paint8_radial_6808_5249)" fill-rule="nonzero" node-id="450" stroke="none" target-height="9.9" target-width="22" target-x="5" target-y="1"/><path d="M 20.10 8.70 L 18.30 10.30 L 16.00 10.90 L 13.60 10.30 L 11.80 8.70 L 10.60 9.60 L 9.00 10.00 L 7.40 9.70 L 6.10 8.80 L 5.30 7.50 L 5.00 6.00 L 5.30 4.40 L 6.10 3.10 L 7.40 2.30 L 9.00 2.00 L 11.80 2.60 L 13.60 1.60 L 16.00 1.00 L 18.30 1.60 L 20.10 2.60 L 23.00 2.00 L 24.50 2.30 L 25.80 3.10 L 26.70 4.40 L 27.00 6.00 L 26.70 7.50 L 25.80 8.80 L 24.50 9.70 L 23.00 10.00 L 21.40 9.60 L 20.10 8.70 Z" fill="url(#paint9_radial_6808_5249)" fill-rule="nonzero" node-id="452" stroke="none" target-height="9.9" target-width="22" target-x="5" target-y="1"/><g node-id="548"><path d="M 20.10 8.70 L 18.30 10.30 L 16.00 10.90 L 13.60 10.30 L 11.80 8.70 L 10.60 9.60 L 9.00 10.00 L 7.40 9.70 L 6.10 8.80 L 5.30 7.50 L 5.00 6.00 L 5.30 4.40 L 6.10 3.10 L 7.40 2.30 L 9.00 2.00 L 11.80 2.60 L 13.60 1.60 L 16.00 1.00 L 18.30 1.60 L 20.10 2.60 L 23.00 2.00 L 24.50 2.30 L 25.80 3.10 L 26.70 4.40 L 27.00 6.00 L 26.70 7.50 L 25.80 8.80 L 24.50 9.70 L 23.00 10.00 L 21.40 9.60 L 20.10 8.70 Z" fill="url(#paint10_radial_6808_5249)" fill-rule="nonzero" group-id="3" node-id="456" stroke="none" target-height="9.9" target-width="22" target-x="5" target-y="1"/></g><g node-id="549"><path d="M 12.20 8.80 L 12.20 3.40 L 12.80 2.40 L 14.30 1.50 L 16.00 1.20 L 17.80 1.50 L 19.20 2.40 L 19.90 3.50 L 19.90 8.60 L 19.00 9.60 L 17.80 10.30 L 14.20 10.30 L 12.20 8.80 Z" fill="url(#paint11_radial_6808_5249)" fill-rule="nonzero" filter="url(#filter1_f_6808_5249)" group-id="4" node-id="461" stroke="none" target-height="9.1" target-width="7.7" target-x="12.2" target-y="1.2"/><path d="M 12.20 8.80 L 12.20 3.40 L 12.80 2.40 L 14.30 1.50 L 16.00 1.20 L 17.80 1.50 L 19.20 2.40 L 19.90 3.50 L 19.90 8.60 L 19.00 9.60 L 17.80 10.30 L 14.20 10.30 L 12.20 8.80 Z" fill="url(#paint12_radial_6808_5249)" fill-rule="nonzero" filter="url(#filter1_f_6808_5249)" group-id="4" node-id="463" stroke="none" target-height="9.1" target-width="7.7" target-x="12.2" target-y="1.2"/><g node-id="557"><path d="M 12.20 8.80 L 12.20 3.40 L 12.80 2.40 L 14.30 1.50 L 16.00 1.20 L 17.80 1.50 L 19.20 2.40 L 19.90 3.50 L 19.90 8.60 L 19.00 9.60 L 17.80 10.30 L 14.20 10.30 L 12.20 8.80 Z" fill="url(#paint13_radial_6808_5249)" fill-rule="nonzero" filter="url(#filter1_f_6808_5249)" group-id="4,12" node-id="467" stroke="none" target-height="9.1" target-width="7.7" target-x="12.2" target-y="1.2"/></g></g><g node-id="550"><path d="M 11.70 4.00 L 11.40 3.30 L 9.80 2.50 L 7.50 2.60 L 6.40 3.40 L 5.60 4.60 L 5.30 6.00 L 5.60 7.40 L 6.40 8.50 L 7.50 9.30 L 8.90 9.60 L 10.40 9.30 L 11.50 8.50 L 11.70 8.70 L 11.70 4.00 Z" fill="url(#paint14_radial_6808_5249)" fill-rule="nonzero" filter="url(#filter2_f_6808_5249)" group-id="5" node-id="473" stroke="none" target-height="7.1000004" target-width="6.3999996" target-x="5.3" target-y="2.5"/><path d="M 11.70 4.00 L 11.40 3.30 L 9.80 2.50 L 7.50 2.60 L 6.40 3.40 L 5.60 4.60 L 5.30 6.00 L 5.60 7.40 L 6.40 8.50 L 7.50 9.30 L 8.90 9.60 L 10.40 9.30 L 11.50 8.50 L 11.70 8.70 L 11.70 4.00 Z" fill="url(#paint15_radial_6808_5249)" fill-rule="nonzero" filter="url(#filter2_f_6808_5249)" group-id="5" node-id="475" stroke="none" target-height="7.1000004" target-width="6.3999996" target-x="5.3" target-y="2.5"/><g node-id="558"><path d="M 11.70 4.00 L 11.40 3.30 L 9.80 2.50 L 7.50 2.60 L 6.40 3.40 L 5.60 4.60 L 5.30 6.00 L 5.60 7.40 L 6.40 8.50 L 7.50 9.30 L 8.90 9.60 L 10.40 9.30 L 11.50 8.50 L 11.70 8.70 L 11.70 4.00 Z" fill="url(#paint16_radial_6808_5249)" fill-rule="nonzero" filter="url(#filter2_f_6808_5249)" group-id="5,13" node-id="479" stroke="none" target-height="7.1000004" target-width="6.3999996" target-x="5.3" target-y="2.5"/></g></g><g node-id="551"><g node-id="559"><path d="M 19.90 4.00 L 20.30 3.20 L 21.90 2.40 L 24.30 2.50 L 25.40 3.30 L 26.20 4.50 L 26.50 6.00 L 26.20 7.40 L 25.40 8.60 L 24.30 9.40 L 22.80 9.70 L 21.30 9.40 L 20.10 8.60 L 19.90 8.80 L 19.90 4.00 Z" fill="url(#paint17_radial_6808_5249)" fill-rule="nonzero" filter="url(#filter3_f_6808_5249)" group-id="6,14" node-id="487" stroke="none" target-height="7.2999997" target-width="6.6000004" target-x="19.9" target-y="2.4"/></g></g><path d="M 4.00 10.00 L 4.70 9.70 L 5.00 9.00 L 4.70 8.30 L 4.00 8.00 L 3.30 8.30 L 3.00 9.00 L 3.30 9.70 L 4.00 10.00 Z" fill="url(#paint18_radial_6808_5249)" fill-rule="nonzero" node-id="491" stroke="none" target-height="2" target-width="2" target-x="3" target-y="8"/><path d="M 27.00 11.00 L 27.70 10.70 L 28.00 10.00 L 27.70 9.30 L 27.00 9.00 L 26.30 9.30 L 26.00 10.00 L 26.30 10.70 L 27.00 11.00 Z" fill="url(#paint19_radial_6808_5249)" fill-rule="nonzero" node-id="493" stroke="none" target-height="2" target-width="2" target-x="26" target-y="9"/><path d="M 24.00 7.30 L 24.90 6.90 L 25.40 6.00 L 24.90 5.00 L 24.00 4.60 L 23.00 5.00 L 22.60 6.00 L 23.00 6.90 L 24.00 7.30 Z" fill="url(#paint20_radial_6808_5249)" fill-rule="nonzero" node-id="495" stroke="none" target-height="2.7000003" target-width="2.7999992" target-x="22.6" target-y="4.6"/><path d="M 5.50 5.80 L 6.00 5.70 L 6.70 5.00 L 6.70 3.90 L 6.00 3.20 L 4.90 3.20 L 4.20 3.90 L 4.20 5.00 L 4.90 5.70 L 5.50 5.80 Z" fill="url(#paint21_radial_6808_5249)" fill-rule="nonzero" node-id="497" stroke="none" target-height="2.6000001" target-width="2.5" target-x="4.2" target-y="3.2"/><path d="M 13.50 13.40 L 13.30 13.10 L 11.40 12.70 L 10.10 11.80 L 9.30 10.60 L 8.90 9.00 L 9.30 7.50 L 10.10 6.20 L 11.40 5.40 L 12.90 5.00 L 14.20 5.20 L 15.90 6.00 L 17.70 5.20 L 19.00 5.00 L 20.50 5.40 L 21.80 6.20 L 22.60 7.50 L 23.00 9.00 L 22.60 10.60 L 21.80 11.80 L 20.50 12.70 L 18.70 13.10 L 18.00 15.00 L 14.00 15.00 L 13.50 13.40 Z" fill="url(#paint22_linear_6808_5249)" fill-rule="nonzero" node-id="499" stroke="none" target-height="10" target-width="14.1" target-x="8.9" target-y="5"/><path d="M 13.50 13.40 L 13.30 13.10 L 11.40 12.70 L 10.10 11.80 L 9.30 10.60 L 8.90 9.00 L 9.30 7.50 L 10.10 6.20 L 11.40 5.40 L 12.90 5.00 L 14.20 5.20 L 15.90 6.00 L 17.70 5.20 L 19.00 5.00 L 20.50 5.40 L 21.80 6.20 L 22.60 7.50 L 23.00 9.00 L 22.60 10.60 L 21.80 11.80 L 20.50 12.70 L 18.70 13.10 L 18.00 15.00 L 14.00 15.00 L 13.50 13.40 Z" fill="url(#paint23_radial_6808_5249)" fill-rule="nonzero" node-id="501" stroke="none" target-height="10" target-width="14.1" target-x="8.9" target-y="5"/><g node-id="552"><path d="M 13.50 13.40 L 13.30 13.10 L 11.40 12.70 L 10.10 11.80 L 9.30 10.60 L 8.90 9.00 L 9.30 7.50 L 10.10 6.20 L 11.40 5.40 L 12.90 5.00 L 14.20 5.20 L 15.90 6.00 L 17.70 5.20 L 19.00 5.00 L 20.50 5.40 L 21.80 6.20 L 22.60 7.50 L 23.00 9.00 L 22.60 10.60 L 21.80 11.80 L 20.50 12.70 L 18.70 13.10 L 18.00 15.00 L 14.00 15.00 L 13.50 13.40 Z" fill="url(#paint24_radial_6808_5249)" fill-rule="nonzero" group-id="7" node-id="505" stroke="none" target-height="10" target-width="14.1" target-x="8.9" target-y="5"/></g><g node-id="553"><path d="M 18.70 13.10 L 17.20 12.90 L 16.60 12.50 L 16.00 11.10 L 16.00 6.00 L 17.70 5.20 L 19.00 5.00 L 20.50 5.40 L 21.80 6.20 L 22.60 7.50 L 23.00 9.00 L 22.60 10.60 L 21.80 11.80 L 20.50 12.70 L 18.70 13.10 Z" fill="url(#paint25_radial_6808_5249)" fill-rule="nonzero" filter="url(#filter4_f_6808_5249)" group-id="8" node-id="510" stroke="none" target-height="8.1" target-width="7" target-x="16" target-y="5"/><path d="M 18.70 13.10 L 17.20 12.90 L 16.60 12.50 L 16.00 11.10 L 16.00 6.00 L 17.70 5.20 L 19.00 5.00 L 20.50 5.40 L 21.80 6.20 L 22.60 7.50 L 23.00 9.00 L 22.60 10.60 L 21.80 11.80 L 20.50 12.70 L 18.70 13.10 Z" fill="url(#paint26_radial_6808_5249)" fill-rule="nonzero" filter="url(#filter4_f_6808_5249)" group-id="8" node-id="512" stroke="none" target-height="8.1" target-width="7" target-x="16" target-y="5"/><g node-id="560"><path d="M 18.70 13.10 L 17.20 12.90 L 16.60 12.50 L 16.00 11.10 L 16.00 6.00 L 17.70 5.20 L 19.00 5.00 L 20.50 5.40 L 21.80 6.20 L 22.60 7.50 L 23.00 9.00 L 22.60 10.60 L 21.80 11.80 L 20.50 12.70 L 18.70 13.10 Z" fill="url(#paint27_radial_6808_5249)" fill-rule="nonzero" filter="url(#filter4_f_6808_5249)" group-id="8,15" node-id="516" stroke="none" target-height="8.1" target-width="7" target-x="16" target-y="5"/></g></g><g node-id="554"><g node-id="561"><path d="M 13.30 13.10 L 14.00 15.00 L 16.00 15.10 L 16.00 11.00 L 13.30 13.10 Z" fill="url(#paint28_linear_6808_5249)" fill-rule="nonzero" filter="url(#filter5_f_6808_5249)" group-id="9,16" node-id="524" stroke="none" target-height="4.1000004" target-width="2.6999998" target-x="13.3" target-y="11"/></g></g><g node-id="555"><path d="M 10.20 25.50 L 11.40 25.30 L 13.20 24.30 L 14.30 22.40 L 14.50 21.20 L 13.90 19.10 L 12.40 17.60 L 11.40 17.10 L 10.20 17.00 L 8.10 17.60 L 6.50 19.10 L 6.00 21.20 L 6.10 22.40 L 7.20 24.30 L 9.10 25.30 L 10.20 25.50 Z" fill="#d66a46" fill-opacity="0.6" fill-rule="nonzero" filter="url(#filter6_f_6808_5249)" group-id="10" node-id="530" stroke="none" target-height="8.5" target-width="8.5" target-x="6" target-y="17"/></g><g node-id="556"><path d="M 20.80 25.50 L 21.90 25.30 L 23.80 24.30 L 24.90 22.40 L 25.10 21.20 L 24.50 19.10 L 22.90 17.60 L 21.90 17.10 L 20.80 17.00 L 18.60 17.60 L 17.10 19.10 L 16.50 21.20 L 16.70 22.40 L 17.80 24.30 L 19.60 25.30 L 20.80 25.50 Z" fill="#ff7c32" fill-opacity="0.6" fill-rule="nonzero" filter="url(#filter7_f_6808_5249)" group-id="11" node-id="535" stroke="none" target-height="8.5" target-width="8.6" target-x="16.5" target-y="17"/></g><path d="M 10.50 24.90 L 11.70 24.80 L 13.60 23.60 L 14.80 21.70 L 14.90 20.50 L 14.30 18.20 L 12.70 16.60 L 11.70 16.20 L 10.50 16.00 L 8.20 16.60 L 6.60 18.20 L 6.00 20.50 L 6.10 21.70 L 7.30 23.60 L 9.20 24.80 L 10.50 24.90 Z" fill="#ffffff" fill-rule="nonzero" node-id="538" stroke="none" target-height="8.9" target-width="8.9" target-x="6" target-y="16"/><path d="M 12.00 22.50 L 12.70 22.30 L 13.80 21.20 L 13.80 19.70 L 12.70 18.60 L 11.20 18.60 L 10.10 19.70 L 10.10 21.20 L 11.20 22.30 L 12.00 22.50 Z" fill="#402933" fill-rule="nonzero" node-id="540" stroke="none" target-height="3.8999996" target-width="3.6999998" target-x="10.1" target-y="18.6"/><path d="M 21.50 24.90 L 22.70 24.80 L 24.60 23.60 L 25.80 21.70 L 25.90 20.50 L 25.30 18.20 L 23.70 16.60 L 22.70 16.20 L 21.50 16.00 L 19.20 16.60 L 17.60 18.20 L 17.00 20.50 L 17.10 21.70 L 18.30 23.60 L 20.20 24.80 L 21.50 24.90 Z" fill="#ffffff" fill-rule="nonzero" node-id="542" stroke="none" target-height="8.9" target-width="8.9" target-x="17" target-y="16"/><path d="M 20.00 22.50 L 20.70 22.30 L 21.80 21.20 L 21.80 19.70 L 20.70 18.60 L 19.20 18.60 L 18.10 19.70 L 18.10 21.20 L 19.20 22.30 L 20.00 22.50 Z" fill="#412933" fill-rule="nonzero" node-id="544" stroke="none" target-height="3.8999996" target-width="3.6999989" target-x="18.1" target-y="18.6"/></svg>